<?xml version="1.0" encoding="UTF-8" standalone="no"?>
<svg
   id="svg1"
   viewBox="0 0 713.66 557.51"
   version="1.0"
   y="0"
   x="0"
   sodipodi:docname="bible.svg"
   inkscape:version="1.4 (e7c3feb100, 2024-10-09)"
   xmlns:inkscape="http://www.inkscape.org/namespaces/inkscape"
   xmlns:sodipodi="http://sodipodi.sourceforge.net/DTD/sodipodi-0.dtd"
   xmlns="http://www.w3.org/2000/svg"
   xmlns:svg="http://www.w3.org/2000/svg"
   xmlns:rdf="http://www.w3.org/1999/02/22-rdf-syntax-ns#"
   xmlns:cc="http://creativecommons.org/ns#"
   xmlns:dc="http://purl.org/dc/elements/1.1/">
  <defs
     id="defs1" />
  <sodipodi:namedview
     id="namedview1"
     pagecolor="#ffffff"
     bordercolor="#000000"
     borderopacity="0.25"
     inkscape:showpageshadow="2"
     inkscape:pageopacity="0.0"
     inkscape:pagecheckerboard="0"
     inkscape:deskcolor="#d1d1d1"
     inkscape:zoom="1.0367527"
     inkscape:cx="356.88357"
     inkscape:cy="278.755"
     inkscape:window-width="1440"
     inkscape:window-height="831"
     inkscape:window-x="0"
     inkscape:window-y="0"
     inkscape:window-maximized="1"
     inkscape:current-layer="svg1" />
  <g
     id="layer1"
     transform="translate(-165.94 -101.83)">
    <g
       id="g6712"
       transform="translate(-8.7205 12.548)">
      <path
         id="path2311"
         d="m494.91 588.46l18.87-0.63 17.72-6.4 17.71 6.4h301.18l-354.33-407.48-313.03-3.01 311.88 411.12z"
         stroke="#000"
         stroke-width="5"
         fill-rule="evenodd" />
      <path
         id="path2933"
         d="m850.39 463.82c-35.43 35.43-45.25 70.87-42.97 106.3h-311.36l53.15-106.3h301.18"
         fill-rule="evenodd"
         stroke="#000"
         stroke-width="5"
         fill="#fff" />
      <path
         id="path1689"
         d="m212.59 91.781l-35.43 88.559 318.9 407.5 53.16-106.31h17.72l17.72 7.56 17.72-7.56h283.43l-354.31-389.75-273.28 0.001-16.97 6.781-17.72-6.781h-10.94z"
         stroke="#000"
         stroke-width="5"
         fill-rule="evenodd" />
      <path
         id="path6077"
         d="m140.33 381.75l155.63 184.63"
         transform="translate(306.4 -244.29)"
         stroke="#fff"
         stroke-linecap="round"
         stroke-width="25"
         fill="none" />
      <path
         id="path6699"
         d="m270.81 442.36h-169.73v0"
         transform="translate(306.4 -244.29)"
         stroke="#fff"
         stroke-linecap="round"
         stroke-width="25"
         fill="none" />
      <path
         id="path6711"
         d="m551.32 525.51c3.98 4.88 5.65 11.29 8.01 17.03 2.97 6.13 2.3 13.1 2.28 19.75 0.96 6.65-1.14 11.87-3.68 17.71-8.95 9.66-43.63 26.28-5.78 4.98 7.7-4.34-30.89 17.17-23.22 12.79l17.19-9.75-0.9 0.6c-40.02 23.3-11.45 6.63-1.84 1.16 3.81-2.17-5.49 7.36-6.01 11.71-1.76 5.19-4.53 9.72-5.64 15.02 1.39 6.12 5.07 8.86 9.93 12.33 3.42 2.15 6.77 4.25 10.04 6.6l-17.74 11.35c-3.32-2.37-6.74-4.52-10.15-6.8-5.33-3.81-9.09-7.28-10.79-13.83 0.55-5.81 2.66-10.31 5.45-15.44 1.9-17.8 41.8-36.08 7.13-14.39 7.31-4.26 44.22-25.44 5.07-2.52-7.26 4.25 29.11-16.85 21.87-12.57-23.56 13.96-20.23 13.19-13.94 7.17 2.7-5.45 5.38-10.02 4.32-16.6 0.01-6.26 0.72-12.86-1.8-18.7-2.35-5.75-4.05-12.11-7.98-17.07-2.64-4.19-5.99-7.86-8.49-11.97 0 0 24.29-2.4 26.67 1.44z" />
    </g>
  </g>
  <metadata
     id="metadata1">
    <rdf:RDF>
      <cc:Work>
        <dc:format>image/svg+xml</dc:format>
        <dc:type
           rdf:resource="http://purl.org/dc/dcmitype/StillImage" />
        <cc:license
           rdf:resource="http://creativecommons.org/licenses/publicdomain/" />
        <dc:publisher>
          <cc:Agent
             rdf:about="http://openclipart.org/">
            <dc:title>Openclipart</dc:title>
          </cc:Agent>
        </dc:publisher>
        <dc:title>Closed Bible</dc:title>
        <dc:date>2009-04-01T07:36:20</dc:date>
        <dc:description>Clipart of a closed Bible by Aaron Johnson</dc:description>
        <dc:source>http://openclipart.org/detail/23574/closed-bible-by-anonymous-23574</dc:source>
        <dc:creator>
          <cc:Agent>
            <dc:title>Anonymous</dc:title>
          </cc:Agent>
        </dc:creator>
        <dc:subject>
          <rdf:Bag>
            <rdf:li>bible</rdf:li>
            <rdf:li>black</rdf:li>
            <rdf:li>book</rdf:li>
            <rdf:li>christianity</rdf:li>
            <rdf:li>clip art</rdf:li>
            <rdf:li>clipart</rdf:li>
            <rdf:li>cross</rdf:li>
            <rdf:li>paper</rdf:li>
            <rdf:li>religion</rdf:li>
            <rdf:li>silhouette</rdf:li>
          </rdf:Bag>
        </dc:subject>
      </cc:Work>
      <cc:License
         rdf:about="http://creativecommons.org/licenses/publicdomain/">
        <cc:permits
           rdf:resource="http://creativecommons.org/ns#Reproduction" />
        <cc:permits
           rdf:resource="http://creativecommons.org/ns#Distribution" />
        <cc:permits
           rdf:resource="http://creativecommons.org/ns#DerivativeWorks" />
      </cc:License>
    </rdf:RDF>
  </metadata>
  <path
     style="fill:#2b1100;stroke-width:0.96455"
     d="m 354.95447,553.89759 c -8.65276,-5.91447 -12.81277,-9.80948 -14.49867,-13.57508 -1.93634,-4.32494 -1.6786,-5.7219 3.48064,-18.86541 3.3465,-8.5254 8.18918,-14.31423 15.36035,-18.36139 2.91675,-1.64611 5.30318,-3.63446 5.30318,-4.41856 0,-0.78411 -1.62768,-2.12132 -3.61706,-2.9716 -3.529,-1.50833 -3.86365,-1.46201 -13.74484,1.90252 -8.36089,2.84685 -11.63855,3.47458 -18.78749,3.5981 l -8.65971,0.14962 -2.5993,-3.27077 c -1.42962,-1.79893 -15.519,-20.19863 -31.30974,-40.88823 C 270.09109,436.50719 199.52485,345.91107 129.06797,255.87208 58.611088,165.83311 0.96455019,91.606334 0.96455019,90.92371 c 0,-0.682623 7.98531421,-21.202689 17.74514281,-45.600147 L 36.454835,0.96455019 42.636397,0.68360623 C 47.801621,0.44885359 50.283781,0.96204091 57.733363,3.8049091 L 66.648767,7.2071557 74.987479,3.8447154 83.32619,0.48227509 H 220.45725 357.58833 L 536.24705,197.00938 l 178.65873,196.5271 -27.04338,0.25607 -27.04338,0.25607 -5.22521,7.9426 c -2.87387,4.36844 -6.60971,10.68949 -8.30187,14.04678 -3.70716,7.35514 -9.51278,24.37559 -10.30093,30.19947 l -0.5694,4.20747 20.78802,23.89908 c 11.43341,13.14451 21.0521,24.32637 21.37486,24.84861 0.38413,0.62155 -52.96219,0.93757 -154.44185,0.91492 l -155.02867,-0.0346 -2.73218,4.12248 c -3.31904,5.00803 -9.49822,20.15147 -9.49822,23.27752 0,3.70544 3.91995,8.40702 11.07415,13.28232 3.70351,2.5238 6.837,4.93882 6.9633,5.3667 0.1263,0.42788 -2.03575,2.17707 -4.80456,3.88708 -2.76882,1.71001 -6.33636,3.95203 -7.92786,4.98226 l -2.89365,1.87313 z m 11.5746,-52.0717 c 0,-0.81472 -7.59957,3.29357 -11.64837,6.29704 -1.28569,0.95374 0.80924,0.10282 4.65538,-1.89094 3.84615,-1.99376 6.99299,-3.97651 6.99299,-4.4061 z m 1.9291,-28.63161 c 0,-4.0404 -0.86375,-7.96684 -2.96043,-13.4575 -2.82291,-7.39245 -9.18111,-18.4639 -11.38626,-19.82676 -0.63378,-0.39171 -4.78765,6.85698 -10.70634,18.6831 -5.31893,10.62772 -9.67077,19.54429 -9.67077,19.81459 0,0.27031 7.81285,0.49146 17.3619,0.49146 h 17.3619 z m 262.36153,-4.18175 c 0.009,-24.026 7.77082,-48.79155 21.83672,-69.67798 l 3.25512,-4.83352 -113.58449,-0.26666 -113.58449,-0.26665 -9.41786,3.99595 -9.41786,3.99594 -9.21895,-3.97042 c -8.30591,-3.57721 -10.00129,-3.97044 -17.1182,-3.97044 h -7.89925 l -9.87571,19.77937 c -5.43164,10.87865 -9.87571,19.99365 -9.87571,20.25555 0,0.26191 3.44413,0.47619 7.65361,0.47619 12.36085,0 13.67476,1.07356 19.47783,15.91508 2.50345,6.40265 3.09926,9.48174 3.49954,18.08531 l 0.48242,10.36892 h 121.8917 121.8917 z M 435.11064,243.27634 c 4.44204,-2.98404 6.48193,-8.72904 4.92247,-13.86337 -0.80062,-2.63595 -13.71003,-18.62985 -44.64461,-55.31166 l -43.5183,-51.60344 27.38919,-0.48227 c 24.02639,-0.42306 27.70765,-0.69117 29.98294,-2.18368 8.07834,-5.29909 8.23293,-17.19457 0.28643,-22.040343 -2.77432,-1.691773 -5.52321,-1.812988 -41.55286,-1.832239 l -38.58201,-0.02062 -24.00698,-28.533107 c -13.20384,-15.69321 -25.35717,-29.356431 -27.0074,-30.362715 -3.85498,-2.350699 -8.92998,-2.330991 -12.83467,0.04984 -4.91121,2.994558 -6.38441,6.014165 -5.88316,12.058634 0.40413,4.873351 0.94016,5.837426 7.63569,13.733315 3.96057,4.670614 11.88173,14.026133 17.60256,20.790041 l 10.40151,12.298015 h -32.91715 c -36.36258,0 -36.92371,0.08401 -40.57679,6.075269 -3.91507,6.42093 -1.38883,15.11494 5.2709,18.13966 3.63572,1.65128 7.17142,1.78716 47.01564,1.80675 l 43.08427,0.0212 51.01518,60.52487 c 28.05836,33.28867 52.0752,61.06131 53.37075,61.71698 3.80753,1.92696 9.87118,1.48779 13.5464,-0.98111 z"
     id="path1" />
  <path
     style="fill:#502d16;stroke-width:0.96455"
     d="m 361.94745,501.93736 c 3.54788,-2.64701 3.34167,-4.41432 -0.74232,-6.36184 -3.25611,-1.55273 -3.69955,-1.5264 -10.85119,0.64433 -11.39595,3.45899 -18.46478,4.82611 -24.81826,4.79984 l -5.7873,-0.0239 -4.82275,-6.42518 C 300.60853,475.49636 251.32475,411.82186 199.77111,345.79124 93.758837,210.00923 22.727655,118.83493 12.099759,104.89978 L 1.6207804,91.159896 2.7116134,87.537881 C 3.3115715,85.545772 11.135724,65.468843 20.098619,42.922483 L 36.394792,1.9291004 43.024498,1.6386253 C 48.503791,1.3985545 51.139616,1.879496 58.214489,4.4102426 L 66.774776,7.472335 75.605238,3.9773051 84.435701,0.48227509 220.90077,0.5349567 357.36584,0.5876384 535.4389,196.57978 l 178.07306,195.99214 -22.2982,0.5947 c -12.26402,0.32709 -24.26481,0.65263 -26.66844,0.72342 l -4.37024,0.12871 -6.18099,9.88664 c -8.51029,13.61241 -15.32013,30.25048 -17.28414,42.22932 l -0.71661,4.37074 20.89332,24.08349 20.89332,24.0835 -43.4965,0.58917 c -23.92307,0.32404 -93.49891,0.64957 -154.61298,0.72341 -104.72594,0.12653 -111.17302,0.23133 -112.09962,1.82221 -0.57286,0.98354 -0.99539,1.17446 -1.01248,0.4575 -0.0225,-0.94503 -0.68944,-0.8891 -2.87508,0.24114 -3.99664,2.06674 -4.88015,1.77739 -1.73587,-0.56851 z m 6.31896,-30.63228 c -0.39059,-6.74724 -0.99244,-8.71025 -5.39701,-17.60304 -2.72656,-5.50493 -5.81816,-11.09408 -6.8702,-12.42033 -1.8924,-2.38565 -1.92831,-2.3908 -3.36457,-0.48228 -2.06363,2.74214 -18.90027,35.72035 -18.90027,37.02026 0,0.75657 5.23058,1.07947 17.48584,1.07947 h 17.48583 z m 262.91703,-4.03252 c 1.42632,-25.23805 8.52808,-47.81668 20.7655,-66.01969 2.13985,-3.18301 3.90291,-6.11283 3.91791,-6.51071 0.015,-0.39788 -51.38566,-0.72341 -114.22368,-0.72341 H 427.39221 l -8.72751,3.78533 -8.72752,3.78533 -7.95922,-3.5212 c -7.01335,-3.10275 -9.07098,-3.56316 -17.31451,-3.87418 l -9.3553,-0.35299 -9.69457,19.37067 c -5.33201,10.65388 -9.69456,19.74438 -9.69456,20.20115 0,0.45675 3.78351,1.09747 8.4078,1.42381 10.58934,0.7473 12.32336,1.96512 16.47436,11.57004 3.48474,8.06327 4.73583,13.665 5.58733,25.01719 l 0.5607,7.47526 H 508.73779 630.52637 Z M 434.01862,244.24406 c 3.57402,-1.80847 6.78081,-7.1772 6.78081,-11.35226 0,-2.81262 -1.0193,-4.98584 -4.57017,-9.744 -4.27941,-5.7344 -40.5193,-49.36425 -69.98197,-84.25257 l -13.03278,-15.43281 3.52249,-0.24834 c 1.93737,-0.13659 14.26376,-0.60216 27.39197,-1.03461 23.42689,-0.77168 23.91596,-0.82967 26.37564,-3.12758 5.59073,-5.22301 6.74149,-11.85001 3.01732,-17.37629 -3.85856,-5.725732 -3.44018,-5.673111 -45.22805,-5.68864 L 330.02986,95.97274 309.81157,72.100123 c -11.12005,-13.12994 -22.98666,-26.802438 -26.37023,-30.383331 -6.00012,-6.350024 -6.27075,-6.510556 -10.96531,-6.504358 -8.50528,0.01123 -12.91835,4.493828 -12.97785,13.182329 -0.0404,5.8999 -0.0494,5.886781 20.9007,30.544632 l 14.06232,16.551069 -33.65482,0.494275 c -18.51015,0.271858 -34.40561,0.857485 -35.32325,1.3014 -2.83433,1.371108 -5.56569,6.841191 -5.56569,11.146361 0,4.92519 1.90819,8.83735 5.49687,11.26962 2.52946,1.71439 5.53783,1.86197 47.16053,2.31348 l 44.45871,0.48227 37.44537,44.36931 c 39.31182,46.58088 59.59888,70.23545 64.73116,75.47605 2.63457,2.69018 3.73347,3.13277 7.74806,3.12057 2.57293,-0.008 5.75015,-0.55671 7.06048,-1.21974 z"
     id="path2" />
</svg>
